<?xml version="1.0" encoding="utf-8"?>
<!-- Generator: Adobe Illustrator 26.5.0, SVG Export Plug-In . SVG Version: 6.00 Build 0)  -->
<svg version="1.1" id="Ebene_1" xmlns="http://www.w3.org/2000/svg" xmlns:xlink="http://www.w3.org/1999/xlink" x="0px" y="0px"
	 viewBox="0 0 188 188" style="enable-background:new 0 0 188 188;" xml:space="preserve">
<style type="text/css">
	.st0{fill:#721E81;}
	.st1{fill:#731F81;}
	.st2{fill:#E51D44;}
	.st3{fill:#F7AC00;}
	.st4{fill:#0085BE;}
</style>
<g>
	<g>
		<rect x="57" y="9" class="st0" width="5" height="5"/>
		<rect x="70.9" y="9" class="st0" width="9.3" height="5"/>
		<rect x="70.9" y="22.8" class="st0" width="68.9" height="5"/>
		<rect x="84.5" y="9" class="st0" width="9.3" height="5"/>
		<rect x="102.7" y="9" class="st0" width="9.7" height="5"/>
		<rect x="52.3" y="18.1" class="st1" width="5" height="5"/>
		<rect x="38.8" y="18.1" class="st1" width="5" height="5"/>
		<rect x="15.8" y="27.3" class="st2" width="5" height="5"/>
		<rect x="25" y="27.3" class="st2" width="5" height="5"/>
		<rect x="38.8" y="31.9" class="st2" width="5" height="5"/>
		<rect x="52.3" y="45.7" class="st2" width="5" height="5"/>
		<rect x="56.9" y="59.5" class="st2" width="5" height="5"/>
		<rect x="25.1" y="68.6" class="st2" width="4.6" height="5"/>
		<rect x="25.1" y="91.5" class="st3" width="4.6" height="5"/>
		<rect x="25.1" y="105.3" class="st3" width="4.6" height="5"/>
		<rect x="52.7" y="123.5" class="st4" width="4.6" height="5"/>
		<rect x="52.1" y="137.5" class="st4" width="9.7" height="5"/>
		<rect x="48" y="146.5" class="st4" width="9.7" height="4.9"/>
		<rect x="52.1" y="160.3" class="st1" width="9.7" height="4.9"/>
		<rect x="66.3" y="160.3" class="st1" width="9.7" height="4.9"/>
		<rect x="84.5" y="165.2" class="st1" width="4.9" height="4.9"/>
		<rect x="52.1" y="174.1" class="st1" width="4.9" height="4.9"/>
		<rect x="153.3" y="160.3" class="st1" width="13.7" height="4.9"/>
		<rect x="98" y="165.2" class="st1" width="46.3" height="4.9"/>
		<rect x="66.2" y="174.1" class="st1" width="31.8" height="4.9"/>
		<rect x="66.3" y="151.4" class="st4" width="96.1" height="5"/>
		<rect x="66.3" y="137.5" class="st4" width="9.7" height="5"/>
		<rect x="98" y="137.5" class="st4" width="64.4" height="5"/>
		<rect x="38.7" y="118.9" class="st4" width="4.6" height="5"/>
		<rect x="66.3" y="123.5" class="st4" width="4.6" height="5"/>
		<rect x="84.7" y="137.5" class="st4" width="4.6" height="5"/>
		<rect x="38.7" y="146.4" class="st4" width="4.6" height="4.9"/>
		<rect x="79.9" y="123.5" class="st4" width="87.1" height="5"/>
		<rect x="47.9" y="109.8" class="st4" width="45.9" height="5"/>
		<rect x="93.8" y="114.4" class="st4" width="41.2" height="5"/>
		<rect x="139.3" y="109.8" class="st4" width="36.6" height="5"/>
		<rect x="38.9" y="96.1" class="st3" width="4.6" height="5"/>
		<rect x="52.5" y="96.1" class="st3" width="4.6" height="5"/>
		<rect x="57.1" y="82.3" class="st3" width="4.6" height="5"/>
		<rect x="70.9" y="87" class="st3" width="4.6" height="5"/>
		<rect x="66.3" y="96.1" class="st3" width="9.1" height="5"/>
		<rect x="171.4" y="103" class="st3" width="9.1" height="5"/>
		<rect x="157.9" y="96.1" class="st3" width="9.1" height="5"/>
		<rect x="84.7" y="87" class="st3" width="9.1" height="5"/>
		<rect x="102.7" y="86.9" class="st3" width="59.8" height="5"/>
		<rect x="75.3" y="100.7" class="st3" width="78.1" height="5"/>
		<rect x="38.7" y="68.6" class="st2" width="5" height="5"/>
		<rect x="66.3" y="73" class="st2" width="100.6" height="5"/>
		<rect x="70.9" y="59.5" class="st2" width="5" height="5"/>
		<rect x="66.3" y="45.7" class="st2" width="9.2" height="5"/>
		<rect x="84.6" y="45.7" class="st2" width="9.2" height="5"/>
		<rect x="84.2" y="59.5" class="st2" width="9.7" height="5"/>
		<rect x="102.6" y="59.5" class="st2" width="59.9" height="5"/>
		<rect x="139.4" y="45.7" class="st2" width="14" height="5"/>
		<rect x="102.6" y="50.1" class="st2" width="28.1" height="5.2"/>
		<rect x="52.3" y="31.9" class="st2" width="23.2" height="5"/>
		<rect x="79.9" y="36.5" class="st2" width="69.1" height="5"/>
	</g>
</g>
</svg>
